<?xml version="1.0" encoding="UTF-8" standalone="no"?>
<!DOCTYPE svg PUBLIC "-//W3C//DTD SVG 1.1//EN" "http://www.w3.org/Graphics/SVG/1.1/DTD/svg11.dtd">
<svg width="100%" height="100%" viewBox="0 0 400 400" version="1.1" xmlns="http://www.w3.org/2000/svg" xmlns:xlink="http://www.w3.org/1999/xlink" xml:space="preserve" xmlns:serif="http://www.serif.com/" style="fill-rule:evenodd;clip-rule:evenodd;stroke-linejoin:round;stroke-miterlimit:2;">
    <g transform="matrix(1,0,0,1,-200,-88)">
        <g transform="matrix(1.13536,0,0,1.13536,-54.142,-40.6065)">
            <path d="M381.725,267.482C381.347,267.191 380.987,266.867 380.649,266.509L299.4,180.417C295.939,176.749 296.106,170.961 299.774,167.5L313.065,154.957C316.732,151.496 322.52,151.663 325.981,155.331L400,233.762L474.019,155.331C477.48,151.663 483.268,151.496 486.935,154.957L500.226,167.5C503.894,170.961 504.061,176.749 500.6,180.417L419.351,266.509C419.013,266.867 418.653,267.191 418.275,267.482L418.275,288.714L474.553,288.688C479.596,288.686 483.692,292.778 483.694,297.821L483.703,316.096C483.705,321.139 479.613,325.235 474.57,325.238L418.275,325.263L418.275,354.822L474.553,354.796C479.596,354.794 483.692,358.886 483.694,363.93L483.703,382.204C483.705,387.247 479.613,391.343 474.57,391.346L418.275,391.372L418.275,438.396C418.275,443.439 414.18,447.533 409.137,447.533L390.863,447.533C385.82,447.533 381.725,443.439 381.725,438.396L381.725,391.388L325.447,391.414C320.404,391.416 316.308,387.324 316.306,382.281L316.297,364.006C316.295,358.963 320.387,354.867 325.43,354.865L381.725,354.839L381.725,325.28L325.447,325.306C320.404,325.308 316.308,321.216 316.306,316.173L316.297,297.898C316.295,292.855 320.387,288.759 325.43,288.757L381.725,288.731L381.725,267.482Z" style="fill:rgb(214,52,71);"/>
        </g>
    </g>
</svg>
