<?xml version="1.0" encoding="UTF-8" standalone="no"?>
<!DOCTYPE svg PUBLIC "-//W3C//DTD SVG 1.1//EN" "http://www.w3.org/Graphics/SVG/1.1/DTD/svg11.dtd">
<svg width="100%" height="100%" viewBox="0 0 400 400" version="1.1" xmlns="http://www.w3.org/2000/svg" xmlns:xlink="http://www.w3.org/1999/xlink" xml:space="preserve" xmlns:serif="http://www.serif.com/" style="fill-rule:evenodd;clip-rule:evenodd;stroke-linecap:round;stroke-linejoin:round;stroke-miterlimit:1.5;">
    <g transform="matrix(1,0,0,1,-189,-74)">
        <g transform="matrix(0.944878,0,0,0.945591,24.7343,11.7844)">
            <path d="M254.132,339.418C256.411,348.605 266.826,349.138 271.441,350.009C276.056,350.879 275.847,350.983 275.847,350.983C275.847,350.983 291.657,352.059 301.642,350.439C311.627,348.82 337.516,345.846 367.765,327.759C398.015,309.671 415.322,294.768 425.3,287.413C435.278,280.057 449.476,270.979 448.684,253.971C447.891,236.963 446.602,233.952 441.557,229.605C436.513,225.257 422.657,216.105 411.572,216.609C400.488,217.114 369.3,223.52 354.197,233.208C339.093,242.897 289.722,266.158 283.788,272.465C277.855,278.772 260.125,295.597 256.749,309.314C253.373,323.031 251.852,330.231 254.132,339.418Z" style="fill:rgb(255,254,253);stroke:black;stroke-width:7.41px;"/>
        </g>
        <path d="M265.679,336.079C270.135,336.344 303.801,341.174 314.929,334.856C320.611,331.63 325.636,316.238 327.571,313.038C338.396,295.13 353.896,281.483 372.885,272.512C390.614,264.136 411.628,256.738 430.698,252.039C442.642,249.096 458.052,248.562 469.42,241.617C476.678,237.183 465.917,223.779 463.111,220.817C456.678,214.027 451.676,211.843 443.157,207.843C434.892,203.961 427.536,199.6 418.47,198.832C406.067,197.781 383.196,199.027 373.74,201.203C360.486,204.252 347.882,209.661 335.114,214.343C302.837,226.18 275.046,244.613 251.229,269.688C246.042,275.149 241.755,281.416 237.471,287.61C230.639,297.488 215.739,321.441 233.811,329.606L265.679,336.079Z" style="fill:rgb(253,50,0);stroke:black;stroke-width:7px;"/>
        <g transform="matrix(0.944878,0,0,0.945591,113.726,29.0849)">
            <path d="M254.132,339.418C256.411,348.605 266.826,349.138 271.441,350.009C276.056,350.879 275.847,350.983 275.847,350.983C275.847,350.983 291.657,352.059 301.642,350.439C311.627,348.82 337.516,345.846 367.765,327.759C398.015,309.671 415.322,294.768 425.3,287.413C435.278,280.057 443.625,273.251 442.833,256.243C442.04,239.234 435.674,233.64 430.63,229.293C425.585,224.946 411.197,218.539 400.112,219.043C389.028,219.547 369.3,223.52 354.197,233.208C339.093,242.897 289.722,266.158 283.788,272.465C277.855,278.772 260.125,295.597 256.749,309.314C253.373,323.031 251.852,330.231 254.132,339.418Z" style="fill:rgb(255,254,253);stroke:black;stroke-width:7.41px;"/>
        </g>
        <g transform="matrix(1,0,0,1,88.9917,17.3005)">
            <path d="M265.679,336.079C270.135,336.344 303.801,341.174 314.929,334.856C320.611,331.63 329.015,315.644 330.979,312.462C340.076,297.724 355.344,283.986 374.855,272.693C391.826,262.87 411.476,254.266 430.546,249.567C442.491,246.624 444.69,245.728 457.416,239.427C465.039,235.653 466.35,225.361 463.544,222.399C457.111,215.609 451.676,211.843 443.157,207.843C434.892,203.961 427.536,199.6 418.47,198.832C406.067,197.781 383.196,199.027 373.74,201.203C360.486,204.252 347.882,209.661 335.114,214.343C302.837,226.18 275.046,244.613 251.229,269.688C246.042,275.149 241.755,281.416 237.471,287.61C230.639,297.488 215.739,321.441 233.811,329.606L265.679,336.079Z" style="fill:rgb(253,50,0);stroke:black;stroke-width:7px;"/>
        </g>
    </g>
</svg>
